<svg width="115" height="52" viewBox="0 0 115 52" fill="none" xmlns="http://www.w3.org/2000/svg">
<path d="M44.5852 32V20.3636H48.9489C49.8428 20.3636 50.5928 20.5189 51.1989 20.8295C51.8087 21.1402 52.2689 21.5758 52.5795 22.1364C52.8939 22.6932 53.0511 23.3428 53.0511 24.0852C53.0511 24.8314 52.892 25.4792 52.5739 26.0284C52.2595 26.5739 51.7955 26.9962 51.1818 27.2955C50.5682 27.5909 49.8144 27.7386 48.9205 27.7386H45.8125V25.9886H48.6364C49.1591 25.9886 49.5871 25.9167 49.9205 25.7727C50.2538 25.625 50.5 25.411 50.6591 25.1307C50.822 24.8466 50.9034 24.4981 50.9034 24.0852C50.9034 23.6723 50.822 23.3201 50.6591 23.0284C50.4962 22.733 50.2481 22.5095 49.9148 22.358C49.5814 22.2027 49.1515 22.125 48.625 22.125H46.6932V32H44.5852ZM50.5966 26.7273L53.4773 32H51.125L48.2955 26.7273H50.5966ZM58.6392 32.1705C57.7642 32.1705 57.0085 31.9886 56.3722 31.625C55.7396 31.2576 55.2528 30.7386 54.9119 30.0682C54.571 29.3939 54.4006 28.6004 54.4006 27.6875C54.4006 26.7898 54.571 26.0019 54.9119 25.3239C55.2566 24.642 55.7377 24.1117 56.3551 23.733C56.9725 23.3504 57.6979 23.1591 58.5312 23.1591C59.0691 23.1591 59.5767 23.2462 60.054 23.4205C60.535 23.5909 60.9593 23.8561 61.3267 24.2159C61.6979 24.5758 61.9896 25.0341 62.2017 25.5909C62.4138 26.1439 62.5199 26.803 62.5199 27.5682V28.1989H55.3665V26.8125H60.5483C60.5445 26.4186 60.4593 26.0682 60.2926 25.7614C60.1259 25.4508 59.893 25.2064 59.5938 25.0284C59.2983 24.8504 58.9536 24.7614 58.5597 24.7614C58.1392 24.7614 57.7699 24.8636 57.4517 25.0682C57.1335 25.2689 56.8854 25.5341 56.7074 25.8636C56.5331 26.1894 56.4441 26.5473 56.4403 26.9375V28.1477C56.4403 28.6553 56.5331 29.0909 56.7188 29.4545C56.9044 29.8144 57.1638 30.0909 57.4972 30.2841C57.8305 30.4735 58.2206 30.5682 58.6676 30.5682C58.9669 30.5682 59.2377 30.5265 59.4801 30.4432C59.7225 30.3561 59.9328 30.2292 60.1108 30.0625C60.2888 29.8958 60.4233 29.6894 60.5142 29.4432L62.4347 29.6591C62.3134 30.1667 62.0824 30.6098 61.7415 30.9886C61.4044 31.3636 60.9725 31.6553 60.446 31.8636C59.9195 32.0682 59.3172 32.1705 58.6392 32.1705ZM68.6179 23.2727V24.8636H63.6009V23.2727H68.6179ZM64.8395 21.1818H66.8963V29.375C66.8963 29.6515 66.938 29.8636 67.0213 30.0114C67.1084 30.1553 67.2221 30.2538 67.3622 30.3068C67.5024 30.3598 67.6577 30.3864 67.8281 30.3864C67.9569 30.3864 68.0743 30.3769 68.1804 30.358C68.2902 30.339 68.3736 30.322 68.4304 30.3068L68.777 31.9148C68.6671 31.9527 68.5099 31.9943 68.3054 32.0398C68.1046 32.0852 67.8584 32.1117 67.5668 32.1193C67.0516 32.1345 66.5876 32.0568 66.1747 31.8864C65.7618 31.7121 65.4342 31.4432 65.1918 31.0795C64.9531 30.7159 64.8357 30.2614 64.8395 29.7159V21.1818ZM74.0511 32.1705C73.1989 32.1705 72.4602 31.983 71.8352 31.608C71.2102 31.233 70.7254 30.7083 70.3807 30.0341C70.0398 29.3598 69.8693 28.572 69.8693 27.6705C69.8693 26.7689 70.0398 25.9792 70.3807 25.3011C70.7254 24.6231 71.2102 24.0966 71.8352 23.7216C72.4602 23.3466 73.1989 23.1591 74.0511 23.1591C74.9034 23.1591 75.642 23.3466 76.267 23.7216C76.892 24.0966 77.375 24.6231 77.7159 25.3011C78.0606 25.9792 78.233 26.7689 78.233 27.6705C78.233 28.572 78.0606 29.3598 77.7159 30.0341C77.375 30.7083 76.892 31.233 76.267 31.608C75.642 31.983 74.9034 32.1705 74.0511 32.1705ZM74.0625 30.5227C74.5246 30.5227 74.911 30.3958 75.2216 30.142C75.5322 29.8845 75.7633 29.5398 75.9148 29.108C76.0701 28.6761 76.1477 28.1951 76.1477 27.6648C76.1477 27.1307 76.0701 26.6477 75.9148 26.2159C75.7633 25.7803 75.5322 25.4337 75.2216 25.1761C74.911 24.9186 74.5246 24.7898 74.0625 24.7898C73.589 24.7898 73.1951 24.9186 72.8807 25.1761C72.5701 25.4337 72.3371 25.7803 72.1818 26.2159C72.0303 26.6477 71.9545 27.1307 71.9545 27.6648C71.9545 28.1951 72.0303 28.6761 72.1818 29.108C72.3371 29.5398 72.5701 29.8845 72.8807 30.142C73.1951 30.3958 73.589 30.5227 74.0625 30.5227ZM85.5412 28.3295V23.2727H87.598V32H85.6037V30.4489H85.5128C85.3158 30.9375 84.992 31.3371 84.5412 31.6477C84.0942 31.9583 83.5431 32.1136 82.8878 32.1136C82.3158 32.1136 81.8101 31.9867 81.3707 31.733C80.9351 31.4754 80.5942 31.1023 80.348 30.6136C80.1018 30.1212 79.9787 29.5265 79.9787 28.8295V23.2727H82.0355V28.5114C82.0355 29.0644 82.187 29.5038 82.4901 29.8295C82.7931 30.1553 83.1908 30.3182 83.6832 30.3182C83.9863 30.3182 84.2798 30.2443 84.5639 30.0966C84.848 29.9489 85.081 29.7292 85.2628 29.4375C85.4484 29.142 85.5412 28.7727 85.5412 28.3295ZM89.7131 32V23.2727H91.7074V24.7273H91.7983C91.9574 24.2235 92.2301 23.8352 92.6165 23.5625C93.0066 23.286 93.4517 23.1477 93.9517 23.1477C94.0653 23.1477 94.1922 23.1534 94.3324 23.1648C94.4763 23.1723 94.5956 23.1856 94.6903 23.2045V25.0966C94.6032 25.0663 94.465 25.0398 94.2756 25.017C94.09 24.9905 93.91 24.9773 93.7358 24.9773C93.3608 24.9773 93.0237 25.0587 92.7244 25.2216C92.429 25.3807 92.196 25.6023 92.0256 25.8864C91.8551 26.1705 91.7699 26.4981 91.7699 26.8693V32H89.7131Z" fill="#383E42"/>
<path d="M22.1134 31.6709L16 25.8354L22.1134 19.9998" stroke="#383E42" stroke-width="1.5" stroke-linecap="round" stroke-linejoin="round"/>
<path d="M16 25.8355L27.8999 25.8354" stroke="#383E42" stroke-width="1.5" stroke-linecap="round" stroke-linejoin="round"/>
</svg>
