<svg width="348" height="56" viewBox="0 0 348 56" fill="none" xmlns="http://www.w3.org/2000/svg">
<rect x="0.5" y="0.5" width="347" height="55" fill="#FBFBFB"/>
<rect x="0.5" y="0.5" width="347" height="55" stroke="#D6D5CB"/>
<path d="M114 31.2241V32.9827C114 34.9253 115.575 36.5 117.517 36.5H127.483C129.425 36.5 131 34.9253 131 32.9827V31.2241" stroke="#383E42" stroke-width="1.5" stroke-linecap="round" stroke-linejoin="round"/>
<path d="M122.5 30.6379V19.5" stroke="#383E42" stroke-width="1.5" stroke-linecap="round" stroke-linejoin="round"/>
<path d="M118.69 26.5347L122.5 30.6381L126.31 26.5347" stroke="#383E42" stroke-width="1.5" stroke-linecap="round" stroke-linejoin="round"/>
<path d="M143.394 24.1307V22.3636H152.678V24.1307H149.082V34H146.991V24.1307H143.394ZM156.975 34.1705C156.1 34.1705 155.344 33.9886 154.708 33.625C154.076 33.2576 153.589 32.7386 153.248 32.0682C152.907 31.3939 152.737 30.6004 152.737 29.6875C152.737 28.7898 152.907 28.0019 153.248 27.3239C153.593 26.642 154.074 26.1117 154.691 25.733C155.308 25.3504 156.034 25.1591 156.867 25.1591C157.405 25.1591 157.913 25.2462 158.39 25.4205C158.871 25.5909 159.295 25.8561 159.663 26.2159C160.034 26.5758 160.326 27.0341 160.538 27.5909C160.75 28.1439 160.856 28.803 160.856 29.5682V30.1989H153.702V28.8125H158.884C158.88 28.4186 158.795 28.0682 158.629 27.7614C158.462 27.4508 158.229 27.2064 157.93 27.0284C157.634 26.8504 157.29 26.7614 156.896 26.7614C156.475 26.7614 156.106 26.8636 155.788 27.0682C155.469 27.2689 155.221 27.5341 155.043 27.8636C154.869 28.1894 154.78 28.5473 154.776 28.9375V30.1477C154.776 30.6553 154.869 31.0909 155.055 31.4545C155.24 31.8144 155.5 32.0909 155.833 32.2841C156.166 32.4735 156.557 32.5682 157.004 32.5682C157.303 32.5682 157.574 32.5265 157.816 32.4432C158.058 32.3561 158.269 32.2292 158.447 32.0625C158.625 31.8958 158.759 31.6894 158.85 31.4432L160.771 31.6591C160.649 32.1667 160.418 32.6098 160.077 32.9886C159.74 33.3636 159.308 33.6553 158.782 33.8636C158.255 34.0682 157.653 34.1705 156.975 34.1705ZM156.021 24.125L157.293 21.5284H159.305L157.56 24.125H156.021ZM164.653 22.3636V34H162.596V22.3636H164.653ZM170.631 34.1705C169.756 34.1705 169.001 33.9886 168.364 33.625C167.732 33.2576 167.245 32.7386 166.904 32.0682C166.563 31.3939 166.393 30.6004 166.393 29.6875C166.393 28.7898 166.563 28.0019 166.904 27.3239C167.249 26.642 167.73 26.1117 168.347 25.733C168.965 25.3504 169.69 25.1591 170.523 25.1591C171.061 25.1591 171.569 25.2462 172.046 25.4205C172.527 25.5909 172.951 25.8561 173.319 26.2159C173.69 26.5758 173.982 27.0341 174.194 27.5909C174.406 28.1439 174.512 28.803 174.512 29.5682V30.1989H167.359V28.8125H172.54C172.537 28.4186 172.451 28.0682 172.285 27.7614C172.118 27.4508 171.885 27.2064 171.586 27.0284C171.29 26.8504 170.946 26.7614 170.552 26.7614C170.131 26.7614 169.762 26.8636 169.444 27.0682C169.126 27.2689 168.878 27.5341 168.7 27.8636C168.525 28.1894 168.436 28.5473 168.433 28.9375V30.1477C168.433 30.6553 168.525 31.0909 168.711 31.4545C168.897 31.8144 169.156 32.0909 169.489 32.2841C169.823 32.4735 170.213 32.5682 170.66 32.5682C170.959 32.5682 171.23 32.5265 171.472 32.4432C171.715 32.3561 171.925 32.2292 172.103 32.0625C172.281 31.8958 172.415 31.6894 172.506 31.4432L174.427 31.6591C174.306 32.1667 174.075 32.6098 173.734 32.9886C173.397 33.3636 172.965 33.6553 172.438 33.8636C171.912 34.0682 171.309 34.1705 170.631 34.1705ZM169.677 24.125L170.95 21.5284H172.961L171.217 24.125H169.677ZM180.059 34.1705C179.188 34.1705 178.44 33.9792 177.815 33.5966C177.193 33.214 176.714 32.6856 176.377 32.0114C176.044 31.3333 175.877 30.553 175.877 29.6705C175.877 28.7841 176.048 28.0019 176.388 27.3239C176.729 26.642 177.21 26.1117 177.832 25.733C178.457 25.3504 179.195 25.1591 180.048 25.1591C180.756 25.1591 181.383 25.2898 181.928 25.5511C182.478 25.8087 182.915 26.1742 183.241 26.6477C183.567 27.1174 183.752 27.6667 183.798 28.2955H181.832C181.752 27.875 181.563 27.5246 181.263 27.2443C180.968 26.9602 180.572 26.8182 180.076 26.8182C179.656 26.8182 179.286 26.9318 178.968 27.1591C178.65 27.3826 178.402 27.7045 178.224 28.125C178.049 28.5455 177.962 29.0492 177.962 29.6364C177.962 30.2311 178.049 30.7424 178.224 31.1705C178.398 31.5947 178.642 31.9223 178.957 32.1534C179.275 32.3807 179.648 32.4943 180.076 32.4943C180.379 32.4943 180.65 32.4375 180.888 32.3239C181.131 32.2064 181.334 32.0379 181.496 31.8182C181.659 31.5985 181.771 31.3314 181.832 31.017H183.798C183.748 31.6345 183.567 32.1818 183.252 32.6591C182.938 33.1326 182.51 33.5038 181.968 33.7727C181.426 34.0379 180.79 34.1705 180.059 34.1705ZM187.543 28.8864V34H185.487V22.3636H187.498V26.7557H187.6C187.805 26.2633 188.121 25.875 188.549 25.5909C188.981 25.303 189.53 25.1591 190.197 25.1591C190.803 25.1591 191.331 25.286 191.782 25.5398C192.233 25.7936 192.581 26.1648 192.827 26.6534C193.077 27.142 193.202 27.7386 193.202 28.4432V34H191.146V28.7614C191.146 28.1742 190.994 27.7178 190.691 27.392C190.392 27.0625 189.971 26.8977 189.43 26.8977C189.066 26.8977 188.74 26.9773 188.452 27.1364C188.168 27.2917 187.945 27.517 187.782 27.8125C187.623 28.108 187.543 28.4659 187.543 28.8864ZM197.81 34.1761C197.257 34.1761 196.759 34.0777 196.316 33.8807C195.877 33.6799 195.528 33.3845 195.271 32.9943C195.017 32.6042 194.89 32.1231 194.89 31.5511C194.89 31.0587 194.981 30.6515 195.163 30.3295C195.344 30.0076 195.593 29.75 195.907 29.5568C196.221 29.3636 196.576 29.2178 196.969 29.1193C197.367 29.017 197.778 28.9432 198.202 28.8977C198.714 28.8447 199.129 28.7973 199.447 28.7557C199.765 28.7102 199.996 28.642 200.14 28.5511C200.288 28.4564 200.362 28.3106 200.362 28.1136V28.0795C200.362 27.6515 200.235 27.3201 199.981 27.0852C199.727 26.8504 199.362 26.733 198.884 26.733C198.38 26.733 197.981 26.8428 197.685 27.0625C197.394 27.2822 197.197 27.5417 197.094 27.8409L195.174 27.5682C195.326 27.0379 195.576 26.5947 195.924 26.2386C196.272 25.8788 196.699 25.6098 197.202 25.4318C197.706 25.25 198.263 25.1591 198.873 25.1591C199.293 25.1591 199.712 25.2083 200.129 25.3068C200.545 25.4053 200.926 25.5682 201.271 25.7955C201.615 26.0189 201.892 26.3239 202.1 26.7102C202.312 27.0966 202.418 27.5795 202.418 28.1591V34H200.441V32.8011H200.373C200.248 33.0436 200.072 33.2708 199.844 33.483C199.621 33.6913 199.339 33.8598 198.998 33.9886C198.661 34.1136 198.265 34.1761 197.81 34.1761ZM198.344 32.6648C198.757 32.6648 199.115 32.5833 199.418 32.4205C199.721 32.2538 199.954 32.0341 200.117 31.7614C200.284 31.4886 200.367 31.1913 200.367 30.8693V29.8409C200.303 29.8939 200.193 29.9432 200.038 29.9886C199.886 30.0341 199.716 30.0739 199.526 30.108C199.337 30.142 199.149 30.1723 198.964 30.1989C198.778 30.2254 198.617 30.2481 198.481 30.267C198.174 30.3087 197.899 30.3769 197.657 30.4716C197.415 30.5663 197.223 30.6989 197.083 30.8693C196.943 31.036 196.873 31.2519 196.873 31.517C196.873 31.8958 197.011 32.1818 197.288 32.375C197.564 32.5682 197.916 32.6648 198.344 32.6648ZM204.487 34V25.2727H206.481V26.7273H206.572C206.731 26.2235 207.004 25.8352 207.39 25.5625C207.78 25.286 208.225 25.1477 208.725 25.1477C208.839 25.1477 208.966 25.1534 209.106 25.1648C209.25 25.1723 209.369 25.1856 209.464 25.2045V27.0966C209.377 27.0663 209.238 27.0398 209.049 27.017C208.863 26.9905 208.683 26.9773 208.509 26.9773C208.134 26.9773 207.797 27.0587 207.498 27.2216C207.202 27.3807 206.969 27.6023 206.799 27.8864C206.629 28.1705 206.543 28.4981 206.543 28.8693V34H204.487ZM214.266 37.4545C213.528 37.4545 212.893 37.3542 212.363 37.1534C211.833 36.9564 211.406 36.6913 211.085 36.358C210.763 36.0246 210.539 35.6553 210.414 35.25L212.266 34.8011C212.35 34.9716 212.471 35.1402 212.63 35.3068C212.789 35.4773 213.003 35.6174 213.272 35.7273C213.545 35.8409 213.888 35.8977 214.3 35.8977C214.884 35.8977 215.367 35.7557 215.749 35.4716C216.132 35.1913 216.323 34.7292 216.323 34.0852V32.4318H216.221C216.115 32.6439 215.96 32.8617 215.755 33.0852C215.554 33.3087 215.287 33.4962 214.954 33.6477C214.624 33.7992 214.21 33.875 213.71 33.875C213.039 33.875 212.431 33.7178 211.886 33.4034C211.344 33.0852 210.912 32.6117 210.59 31.983C210.272 31.3504 210.113 30.5587 210.113 29.608C210.113 28.6496 210.272 27.8409 210.59 27.1818C210.912 26.5189 211.346 26.017 211.891 25.6761C212.437 25.3314 213.045 25.1591 213.715 25.1591C214.227 25.1591 214.647 25.2462 214.977 25.4205C215.31 25.5909 215.575 25.7973 215.772 26.0398C215.969 26.2784 216.119 26.5038 216.221 26.7159H216.335V25.2727H218.363V34.142C218.363 34.8883 218.185 35.5057 217.829 35.9943C217.473 36.483 216.986 36.8485 216.369 37.0909C215.751 37.3333 215.05 37.4545 214.266 37.4545ZM214.283 32.2614C214.719 32.2614 215.09 32.1553 215.397 31.9432C215.704 31.7311 215.937 31.4261 216.096 31.0284C216.255 30.6307 216.335 30.1534 216.335 29.5966C216.335 29.0473 216.255 28.5663 216.096 28.1534C215.941 27.7405 215.71 27.4205 215.403 27.1932C215.1 26.9621 214.727 26.8466 214.283 26.8466C213.825 26.8466 213.442 26.9659 213.136 27.2045C212.829 27.4432 212.598 27.7708 212.442 28.1875C212.287 28.6004 212.21 29.0701 212.21 29.5966C212.21 30.1307 212.287 30.5985 212.442 31C212.602 31.3977 212.835 31.7083 213.141 31.9318C213.452 32.1515 213.833 32.2614 214.283 32.2614ZM224.335 34.1705C223.46 34.1705 222.704 33.9886 222.067 33.625C221.435 33.2576 220.948 32.7386 220.607 32.0682C220.266 31.3939 220.096 30.6004 220.096 29.6875C220.096 28.7898 220.266 28.0019 220.607 27.3239C220.952 26.642 221.433 26.1117 222.05 25.733C222.668 25.3504 223.393 25.1591 224.227 25.1591C224.764 25.1591 225.272 25.2462 225.749 25.4205C226.23 25.5909 226.655 25.8561 227.022 26.2159C227.393 26.5758 227.685 27.0341 227.897 27.5909C228.109 28.1439 228.215 28.803 228.215 29.5682V30.1989H221.062V28.8125H226.244C226.24 28.4186 226.155 28.0682 225.988 27.7614C225.821 27.4508 225.588 27.2064 225.289 27.0284C224.994 26.8504 224.649 26.7614 224.255 26.7614C223.835 26.7614 223.465 26.8636 223.147 27.0682C222.829 27.2689 222.581 27.5341 222.403 27.8636C222.228 28.1894 222.139 28.5473 222.136 28.9375V30.1477C222.136 30.6553 222.228 31.0909 222.414 31.4545C222.6 31.8144 222.859 32.0909 223.192 32.2841C223.526 32.4735 223.916 32.5682 224.363 32.5682C224.662 32.5682 224.933 32.5265 225.175 32.4432C225.418 32.3561 225.628 32.2292 225.806 32.0625C225.984 31.8958 226.119 31.6894 226.21 31.4432L228.13 31.6591C228.009 32.1667 227.778 32.6098 227.437 32.9886C227.1 33.3636 226.668 33.6553 226.141 33.8636C225.615 34.0682 225.013 34.1705 224.335 34.1705ZM229.955 34V25.2727H231.95V26.7273H232.04C232.2 26.2235 232.472 25.8352 232.859 25.5625C233.249 25.286 233.694 25.1477 234.194 25.1477C234.308 25.1477 234.434 25.1534 234.575 25.1648C234.719 25.1723 234.838 25.1856 234.933 25.2045V27.0966C234.845 27.0663 234.707 27.0398 234.518 27.017C234.332 26.9905 234.152 26.9773 233.978 26.9773C233.603 26.9773 233.266 27.0587 232.967 27.2216C232.671 27.3807 232.438 27.6023 232.268 27.8864C232.097 28.1705 232.012 28.4981 232.012 28.8693V34H229.955Z" fill="#383E42"/>
</svg>
