<svg width="133" height="19" viewBox="0 0 133 19" fill="none" xmlns="http://www.w3.org/2000/svg">
<g clip-path="url(#clip0_664_1251)">
<path d="M5.39496 18.7358C4.70572 18.7358 4.05477 18.7282 3.44212 18.7167C2.83329 18.7052 2.24361 18.6822 1.68073 18.6554C1.11785 18.6286 0.554976 18.6018 -0.000244141 18.575V4.59877C0.635387 4.56048 1.23273 4.52219 1.79178 4.48773C2.35082 4.45327 2.90987 4.43029 3.47275 4.4188C4.03563 4.40732 4.62531 4.39966 5.23414 4.39966C6.86533 4.39966 8.18637 4.64855 9.19726 5.14633C10.2043 5.64412 10.9395 6.42142 11.399 7.47443C11.8585 8.53126 12.0844 9.89442 12.0844 11.5677C12.0844 13.2411 11.8393 14.5659 11.3492 15.6304C10.8591 16.6911 10.1162 17.476 9.12833 17.9815C8.14043 18.4869 6.89597 18.7396 5.39496 18.7396V18.7358ZM5.65534 16.0861C6.29097 16.0861 6.83087 15.9367 7.26739 15.6381C7.70391 15.3394 8.04087 14.8608 8.27444 14.206C8.50802 13.5474 8.62289 12.6743 8.62289 11.5869C8.62289 10.4994 8.51185 9.5498 8.29359 8.89885C8.07533 8.24791 7.73837 7.78075 7.28654 7.49357C6.8347 7.20639 6.25651 7.06471 5.55578 7.06471C5.30306 7.06471 5.05034 7.07237 4.79762 7.08386C4.5449 7.09535 4.29601 7.11066 4.05094 7.12215C3.80588 7.13364 3.59145 7.14129 3.40383 7.14129V15.9827C3.57614 15.9942 3.75228 16.0133 3.93224 16.0325C4.11221 16.0516 4.29601 16.0631 4.49129 16.0631C4.68658 16.0631 4.8742 16.0631 5.06949 16.0746C5.26094 16.0822 5.45623 16.0861 5.65534 16.0861Z" fill="#212120"/>
<path d="M16.9434 18.5366V4.59863H20.3283V18.5366H16.9434Z" fill="#212120"/>
<path d="M25.6853 18.5366V4.59863H35.6218V7.52407H29.0894V11.0085H34.745V13.8765H29.0894V18.5366H25.6853Z" fill="#212120"/>
<path d="M40.2205 18.5366V4.59863H50.157V7.52407H43.6245V11.0085H49.2801V13.8765H43.6245V18.5366H40.2205Z" fill="#212120"/>
<path d="M54.7558 18.5366V4.59863H64.7497V7.46663H58.1177V10.0934H64.229V12.8006H58.1177V15.7069H65.125V18.5327H54.752L54.7558 18.5366Z" fill="#212120"/>
<path d="M81.4945 18.7358C81.0848 18.7358 80.6713 18.6745 80.2615 18.5558C79.848 18.4371 79.4459 18.261 79.0477 18.0274C78.6495 17.7939 78.2398 17.4914 77.8147 17.1123C77.3897 16.7332 76.9532 16.2775 76.509 15.7376C76.0648 15.2016 75.6015 14.5851 75.1267 13.8958C75.0463 13.9111 74.9391 13.915 74.7974 13.915H73.8631C73.6449 13.915 73.4496 13.9073 73.2773 13.8958V18.5367H69.8923V4.59877C70.6773 4.57197 71.3972 4.54133 72.0519 4.5107C72.7106 4.47624 73.3117 4.44944 73.8631 4.43029C74.4145 4.41115 74.9199 4.39966 75.3871 4.39966C76.4899 4.39966 77.428 4.4839 78.2053 4.64855C78.9826 4.8132 79.6183 5.06975 80.116 5.41437C80.6138 5.75899 80.9776 6.20699 81.2112 6.75838C81.4447 7.30977 81.5596 7.96455 81.5596 8.71888C81.5596 9.51534 81.4371 10.1969 81.192 10.7598C80.947 11.3227 80.6023 11.7822 80.1582 12.1344C79.714 12.4867 79.1932 12.7701 78.5959 12.9807C78.929 13.3904 79.2507 13.7542 79.5608 14.0643C79.871 14.3745 80.1696 14.6348 80.4453 14.8416C80.7249 15.0484 80.9852 15.2016 81.2303 15.3011C81.4754 15.4007 81.7166 15.4504 81.9578 15.4504H82.2757L82.2948 18.6745C82.1876 18.6745 82.0765 18.686 81.9578 18.7052C81.8391 18.7243 81.686 18.7358 81.4983 18.7358H81.4945ZM75.3411 11.4299C75.8045 11.4299 76.2065 11.3916 76.5473 11.3112C76.8843 11.2308 77.1676 11.1044 77.3935 10.9321C77.6195 10.7598 77.7879 10.53 77.9028 10.2467C78.0139 9.96334 78.0713 9.60723 78.0713 9.1822C78.0713 8.66528 77.9909 8.25173 77.8339 7.94923C77.6731 7.64291 77.405 7.41699 77.026 7.27148C76.6469 7.12598 76.1261 7.05323 75.4637 7.05323H74.4566C74.3035 7.05323 74.135 7.06088 73.9474 7.07237C73.7597 7.08769 73.5376 7.09917 73.2696 7.11066V11.4107C73.4534 11.4261 73.6295 11.4337 73.798 11.4414C73.9627 11.449 74.1235 11.449 74.2767 11.4414C74.4298 11.4337 74.5906 11.4299 74.763 11.4299H75.3411Z" fill="#212120"/>
<path d="M86.9508 18.5366V4.59863H96.9448V7.46663H90.3128V10.0934H96.424V12.8006H90.3128V15.7069H97.3201V18.5327H86.947L86.9508 18.5366Z" fill="#212120"/>
<path d="M102.083 18.5367V4.57959H105.269L110.546 13.3597V4.59874H113.532V18.5558H110.366L105.089 9.95565V18.5367H102.083Z" fill="#212120"/>
<path d="M129.68 7.56619H125.579V18.5366H122.232V7.56619H118.131V4.59863H129.68V7.56619Z" fill="#212120"/>
<path d="M132.131 17.9011C132.085 17.9011 132.039 17.8934 131.993 17.8743C131.947 17.8551 131.897 17.8283 131.847 17.7901C131.798 17.7518 131.748 17.702 131.694 17.6445C131.641 17.5833 131.587 17.5105 131.53 17.4263C131.472 17.342 131.411 17.2425 131.346 17.1276C131.327 17.1276 131.304 17.1276 131.281 17.1314C131.254 17.1314 131.231 17.1314 131.208 17.1314C131.158 17.1314 131.105 17.1314 131.047 17.1314C130.99 17.1314 130.936 17.1314 130.882 17.1276V17.8743H130.645V15.9559C130.725 15.9559 130.798 15.9483 130.867 15.9444C130.936 15.9444 130.997 15.9368 131.059 15.9368C131.12 15.9368 131.181 15.9368 131.239 15.9368C131.38 15.9368 131.499 15.9483 131.598 15.9636C131.698 15.9827 131.778 16.0133 131.84 16.0593C131.901 16.1014 131.947 16.1627 131.974 16.2316C132.001 16.3044 132.016 16.3924 132.016 16.4958C132.016 16.6107 132.001 16.7026 131.966 16.783C131.932 16.8596 131.886 16.9247 131.817 16.9706C131.752 17.0166 131.671 17.051 131.579 17.074C131.644 17.1851 131.702 17.277 131.759 17.3535C131.817 17.4301 131.866 17.4914 131.912 17.5373C131.958 17.5833 132.001 17.6177 132.043 17.6407C132.081 17.6637 132.119 17.6752 132.154 17.6752H132.196V17.9011C132.196 17.9011 132.18 17.9011 132.173 17.9049C132.161 17.9049 132.15 17.9049 132.135 17.9049L132.131 17.9011ZM131.246 16.9323C131.338 16.9323 131.415 16.9247 131.48 16.9094C131.545 16.894 131.598 16.8711 131.641 16.8404C131.683 16.8098 131.713 16.7677 131.736 16.7141C131.755 16.6605 131.767 16.5954 131.767 16.5188C131.767 16.4192 131.752 16.3427 131.717 16.2852C131.687 16.2278 131.629 16.1857 131.553 16.1589C131.476 16.1321 131.373 16.1206 131.239 16.1206H131.139C131.112 16.1206 131.085 16.1206 131.059 16.1206C131.032 16.1206 131.005 16.1206 130.974 16.1206C130.944 16.1206 130.909 16.1206 130.871 16.1282V16.917C130.905 16.917 130.94 16.917 130.97 16.9208C131.001 16.9208 131.032 16.9208 131.062 16.9208C131.093 16.9208 131.124 16.9208 131.15 16.9208H131.239L131.246 16.9323Z" fill="#FF3D00"/>
<path d="M131.342 18.575C130.427 18.575 129.684 17.8322 129.684 16.917C129.684 16.0019 130.427 15.259 131.342 15.259C132.257 15.259 133 16.0019 133 16.917C133 17.8322 132.257 18.575 131.342 18.575ZM131.342 15.5003C130.561 15.5003 129.925 16.1359 129.925 16.917C129.925 17.6982 130.561 18.3338 131.342 18.3338C132.123 18.3338 132.759 17.6982 132.759 16.917C132.759 16.1359 132.123 15.5003 131.342 15.5003Z" fill="#FF3D00"/>
</g>
<defs>
<clipPath id="clip0_664_1251">
<rect width="133" height="18.7358" fill="white"/>
</clipPath>
</defs>
</svg>
