<svg width="142" height="20" viewBox="0 0 142 20" fill="none" xmlns="http://www.w3.org/2000/svg">
<g clip-path="url(#clip0_316_74930)">
<path d="M5.75913 20C5.02338 20 4.32851 19.9919 3.67451 19.9796C3.02461 19.9673 2.39514 19.9428 1.79428 19.9142C1.19342 19.8856 0.592561 19.857 -0.00012207 19.8284V4.90908C0.678398 4.86821 1.31604 4.82733 1.91281 4.79055C2.50959 4.75376 3.10636 4.72923 3.70721 4.71697C4.30807 4.70471 4.93754 4.69653 5.58745 4.69653C7.32871 4.69653 8.73889 4.96222 9.81799 5.49359C10.893 6.02496 11.6778 6.85472 12.1683 7.97877C12.6588 9.10692 12.8999 10.5621 12.8999 12.3483C12.8999 14.1345 12.6383 15.5488 12.1151 16.6851C11.5919 17.8173 10.799 18.6553 9.74441 19.1948C8.68984 19.7343 7.36141 20.0041 5.75913 20.0041V20ZM6.03707 17.1715C6.71559 17.1715 7.29193 17.0121 7.7579 16.6933C8.22387 16.3744 8.58357 15.8635 8.8329 15.1645C9.08224 14.4615 9.20486 13.5296 9.20486 12.3687C9.20486 11.2079 9.08633 10.1942 8.85334 9.49931C8.62036 8.80444 8.26066 8.30577 7.77834 7.99921C7.29602 7.69265 6.67881 7.54141 5.9308 7.54141C5.66103 7.54141 5.39125 7.54959 5.12148 7.56185C4.85171 7.57411 4.58602 7.59046 4.32442 7.60273C4.06282 7.61499 3.83393 7.62316 3.63364 7.62316V17.0611C3.81758 17.0734 4.0056 17.0938 4.19771 17.1143C4.38982 17.1347 4.58602 17.147 4.79448 17.147C5.00294 17.147 5.20323 17.147 5.41169 17.1592C5.61606 17.1674 5.82453 17.1715 6.03707 17.1715Z" fill="#212120"/>
<path d="M18.0869 19.7873V4.90894H21.7002V19.7873H18.0869Z" fill="#212120"/>
<path d="M27.4187 19.7873V4.90894H38.0257V8.03176H31.0525V11.7514H37.0897V14.8129H31.0525V19.7873H27.4187Z" fill="#212120"/>
<path d="M42.9348 19.7873V4.90894H53.5418V8.03176H46.5686V11.7514H52.6058V14.8129H46.5686V19.7873H42.9348Z" fill="#212120"/>
<path d="M58.4509 19.7873V4.90894H69.1192V7.97045H62.0397V10.7745H68.5633V13.6643H62.0397V16.7667H69.5197V19.7832H58.4468L58.4509 19.7873Z" fill="#212120"/>
<path d="M86.9937 20C86.5563 20 86.1149 19.9346 85.6775 19.8079C85.2361 19.6812 84.8069 19.4932 84.3818 19.2438C83.9567 18.9945 83.5193 18.6716 83.0656 18.2669C82.6119 17.8623 82.1459 17.3759 81.6718 16.7995C81.1976 16.2273 80.7031 15.5692 80.1962 14.8335C80.1104 14.8498 79.9959 14.8539 79.8447 14.8539H78.8474C78.6144 14.8539 78.4059 14.8457 78.222 14.8335V19.7875H74.6086V4.90908C75.4466 4.88047 76.215 4.84777 76.914 4.81507C77.617 4.77828 78.2588 4.74967 78.8474 4.72923C79.4359 4.7088 79.9755 4.69653 80.4742 4.69653C81.6514 4.69653 82.6528 4.78646 83.4826 4.96222C84.3123 5.13798 84.9908 5.41184 85.5222 5.77971C86.0536 6.14759 86.4419 6.62582 86.6912 7.21442C86.9405 7.80301 87.0632 8.50197 87.0632 9.3072C87.0632 10.1574 86.9324 10.885 86.6708 11.4858C86.4092 12.0867 86.0413 12.5772 85.5672 12.9532C85.093 13.3293 84.5371 13.6317 83.8995 13.8566C84.2551 14.2939 84.5984 14.6822 84.9295 15.0133C85.2606 15.3444 85.5794 15.6223 85.8737 15.8431C86.1721 16.0638 86.4501 16.2273 86.7117 16.3336C86.9733 16.4398 87.2308 16.493 87.4883 16.493H87.8275L87.848 19.9346C87.7335 19.9346 87.615 19.9469 87.4883 19.9673C87.3616 19.9878 87.1981 20 86.9978 20H86.9937ZM80.4251 12.2011C80.9197 12.2011 81.3489 12.1603 81.7127 12.0744C82.0724 11.9886 82.3748 11.8537 82.616 11.6698C82.8572 11.4858 83.037 11.2406 83.1596 10.9381C83.2782 10.6356 83.3395 10.2555 83.3395 9.80179C83.3395 9.24998 83.2537 8.80853 83.0861 8.48562C82.9144 8.15862 82.6283 7.91746 82.2236 7.76214C81.8189 7.60681 81.2631 7.52915 80.5559 7.52915H79.4809C79.3174 7.52915 79.1376 7.53733 78.9373 7.54959C78.737 7.56594 78.4999 7.5782 78.2138 7.59046V12.1807C78.41 12.197 78.598 12.2052 78.7779 12.2134C78.9536 12.2216 79.1253 12.2216 79.2888 12.2134C79.4523 12.2052 79.624 12.2011 79.8079 12.2011H80.4251Z" fill="#212120"/>
<path d="M92.8184 19.7873V4.90894H103.487V7.97045H96.4072V10.7745H102.931V13.6643H96.4072V16.7667H103.887V19.7832H92.8143L92.8184 19.7873Z" fill="#212120"/>
<path d="M108.972 19.7875V4.88867H112.373L118.005 14.2612V4.90911H121.193V19.8079H117.813L112.18 10.6275V19.7875H108.972Z" fill="#212120"/>
<path d="M138.43 8.07673H134.053V19.7873H130.48V8.07673H126.102V4.90894H138.43V8.07673Z" fill="#212120"/>
<path d="M141.046 19.1088C140.997 19.1088 140.948 19.1007 140.899 19.0802C140.85 19.0598 140.797 19.0312 140.744 18.9903C140.69 18.9494 140.637 18.8963 140.58 18.835C140.523 18.7696 140.466 18.6919 140.404 18.602C140.343 18.5121 140.278 18.4058 140.208 18.2832C140.188 18.2832 140.163 18.2832 140.139 18.2873C140.11 18.2873 140.086 18.2873 140.061 18.2873C140.008 18.2873 139.951 18.2873 139.889 18.2873C139.828 18.2873 139.771 18.2873 139.714 18.2832V19.0802H139.46V17.0324C139.546 17.0324 139.624 17.0242 139.697 17.0201C139.771 17.0201 139.836 17.012 139.902 17.012C139.967 17.012 140.032 17.012 140.094 17.012C140.245 17.012 140.372 17.0242 140.478 17.0406C140.584 17.061 140.67 17.0937 140.735 17.1428C140.801 17.1877 140.85 17.2531 140.878 17.3267C140.907 17.4044 140.923 17.4984 140.923 17.6087C140.923 17.7314 140.907 17.8295 140.87 17.9153C140.834 17.997 140.784 18.0665 140.711 18.1156C140.641 18.1646 140.556 18.2014 140.457 18.2259C140.527 18.3445 140.588 18.4426 140.65 18.5243C140.711 18.6061 140.764 18.6715 140.813 18.7205C140.862 18.7696 140.907 18.8064 140.952 18.8309C140.993 18.8554 141.034 18.8677 141.071 18.8677H141.116V19.1088C141.116 19.1088 141.099 19.1088 141.091 19.1129C141.079 19.1129 141.067 19.1129 141.05 19.1129L141.046 19.1088ZM140.102 18.0747C140.2 18.0747 140.282 18.0665 140.351 18.0502C140.421 18.0338 140.478 18.0093 140.523 17.9766C140.568 17.9439 140.601 17.8989 140.625 17.8417C140.646 17.7845 140.658 17.715 140.658 17.6333C140.658 17.527 140.641 17.4452 140.605 17.3839C140.572 17.3226 140.511 17.2776 140.429 17.249C140.347 17.2204 140.237 17.2082 140.094 17.2082H139.987C139.959 17.2082 139.93 17.2082 139.902 17.2082C139.873 17.2082 139.844 17.2082 139.812 17.2082C139.779 17.2082 139.742 17.2082 139.701 17.2163V18.0584C139.738 18.0584 139.775 18.0584 139.808 18.0624C139.84 18.0624 139.873 18.0624 139.906 18.0624C139.938 18.0624 139.971 18.0624 140 18.0624H140.094L140.102 18.0747Z" fill="#FF3D00"/>
<path d="M140.204 19.8283C139.227 19.8283 138.434 19.0354 138.434 18.0585C138.434 17.0815 139.227 16.2886 140.204 16.2886C141.181 16.2886 141.974 17.0815 141.974 18.0585C141.974 19.0354 141.181 19.8283 140.204 19.8283ZM140.204 16.5461C139.37 16.5461 138.692 17.2246 138.692 18.0585C138.692 18.8923 139.37 19.5708 140.204 19.5708C141.038 19.5708 141.716 18.8923 141.716 18.0585C141.716 17.2246 141.038 16.5461 140.204 16.5461Z" fill="#FF3D00"/>
</g>
<defs>
<clipPath id="clip0_316_74930">
<rect width="141.974" height="20" fill="white"/>
</clipPath>
</defs>
</svg>
