<svg width="122" height="122" viewBox="0 0 122 122" fill="none" xmlns="http://www.w3.org/2000/svg">
<path fill-rule="evenodd" clip-rule="evenodd" d="M61 21.35C50.4842 21.35 40.399 25.5274 32.9632 32.9632C25.5274 40.399 21.35 50.4842 21.35 61C21.35 71.5158 25.5274 81.601 32.9632 89.0368C40.399 96.4726 50.4842 100.65 61 100.65C71.5158 100.65 81.601 96.4726 89.0368 89.0368C96.4726 81.601 100.65 71.5158 100.65 61C100.65 50.4842 96.4726 40.399 89.0368 32.9632C81.601 25.5274 71.5158 21.35 61 21.35ZM15.25 61C15.25 48.8663 20.0701 37.2297 28.6499 28.6499C37.2297 20.0701 48.8663 15.25 61 15.25C73.1337 15.25 84.7703 20.0701 93.3501 28.6499C101.93 37.2297 106.75 48.8663 106.75 61C106.75 73.1337 101.93 84.7703 93.3501 93.3501C84.7703 101.93 73.1337 106.75 61 106.75C48.8663 106.75 37.2297 101.93 28.6499 93.3501C20.0701 84.7703 15.25 73.1337 15.25 61Z" fill="#D6D5CB"/>
<path fill-rule="evenodd" clip-rule="evenodd" d="M93.3545 28.6518C93.9263 29.2237 94.2475 29.9994 94.2475 30.8081C94.2475 31.6169 93.9263 32.3925 93.3545 32.9645L32.9645 93.3545C32.6832 93.6458 32.3466 93.8782 31.9745 94.038C31.6024 94.1978 31.2022 94.282 30.7972 94.2855C30.3922 94.289 29.9906 94.2118 29.6158 94.0585C29.2409 93.9051 28.9004 93.6787 28.614 93.3923C28.3277 93.1059 28.1012 92.7654 27.9478 92.3905C27.7945 92.0157 27.7173 91.6141 27.7208 91.2091C27.7243 90.8041 27.8085 90.4039 27.9683 90.0318C28.1282 89.6597 28.3605 89.3231 28.6518 89.0418L89.0418 28.6518C89.6138 28.08 90.3894 27.7588 91.1982 27.7588C92.0069 27.7588 92.7826 28.08 93.3545 28.6518Z" fill="#D6D5CB"/>
</svg>
