<svg width="390" height="58" viewBox="0 0 390 58" fill="none" xmlns="http://www.w3.org/2000/svg">
<g filter="url(#filter0_d_429_1018)">
<rect width="382" height="50" transform="translate(4 3)" fill="#383E42"/>
<path d="M144.257 34V22.3636H151.825V24.1307H146.365V27.2898H151.433V29.0568H146.365V32.233H151.871V34H144.257ZM155.942 28.8864V34H153.885V25.2727H155.851V26.7557H155.953C156.154 26.267 156.474 25.8788 156.913 25.5909C157.357 25.303 157.904 25.1591 158.555 25.1591C159.158 25.1591 159.682 25.2879 160.129 25.5455C160.58 25.803 160.929 26.1761 161.175 26.6648C161.425 27.1534 161.548 27.7462 161.544 28.4432V34H159.487V28.7614C159.487 28.178 159.336 27.7216 159.033 27.392C158.733 27.0625 158.319 26.8977 157.788 26.8977C157.429 26.8977 157.108 26.9773 156.828 27.1364C156.552 27.2917 156.334 27.517 156.175 27.8125C156.019 28.108 155.942 28.4659 155.942 28.8864ZM163.635 34V25.2727H165.629V26.7273H165.72C165.879 26.2235 166.152 25.8352 166.538 25.5625C166.929 25.286 167.374 25.1477 167.874 25.1477C167.987 25.1477 168.114 25.1534 168.254 25.1648C168.398 25.1723 168.518 25.1856 168.612 25.2045V27.0966C168.525 27.0663 168.387 27.0398 168.197 27.017C168.012 26.9905 167.832 26.9773 167.658 26.9773C167.283 26.9773 166.946 27.0587 166.646 27.2216C166.351 27.3807 166.118 27.6023 165.947 27.8864C165.777 28.1705 165.692 28.4981 165.692 28.8693V34H163.635ZM173.483 34.1705C172.608 34.1705 171.852 33.9886 171.216 33.625C170.583 33.2576 170.097 32.7386 169.756 32.0682C169.415 31.3939 169.244 30.6004 169.244 29.6875C169.244 28.7898 169.415 28.0019 169.756 27.3239C170.1 26.642 170.581 26.1117 171.199 25.733C171.816 25.3504 172.542 25.1591 173.375 25.1591C173.913 25.1591 174.42 25.2462 174.898 25.4205C175.379 25.5909 175.803 25.8561 176.17 26.2159C176.542 26.5758 176.833 27.0341 177.045 27.5909C177.258 28.1439 177.364 28.803 177.364 29.5682V30.1989H170.21V28.8125H175.392C175.388 28.4186 175.303 28.0682 175.136 27.7614C174.97 27.4508 174.737 27.2064 174.438 27.0284C174.142 26.8504 173.797 26.7614 173.403 26.7614C172.983 26.7614 172.614 26.8636 172.295 27.0682C171.977 27.2689 171.729 27.5341 171.551 27.8636C171.377 28.1894 171.288 28.5473 171.284 28.9375V30.1477C171.284 30.6553 171.377 31.0909 171.562 31.4545C171.748 31.8144 172.008 32.0909 172.341 32.2841C172.674 32.4735 173.064 32.5682 173.511 32.5682C173.811 32.5682 174.081 32.5265 174.324 32.4432C174.566 32.3561 174.777 32.2292 174.955 32.0625C175.133 31.8958 175.267 31.6894 175.358 31.4432L177.278 31.6591C177.157 32.1667 176.926 32.6098 176.585 32.9886C176.248 33.3636 175.816 33.6553 175.29 33.8636C174.763 34.0682 174.161 34.1705 173.483 34.1705ZM182.899 37.4545C182.161 37.4545 181.526 37.3542 180.996 37.1534C180.465 36.9564 180.039 36.6913 179.717 36.358C179.395 36.0246 179.172 35.6553 179.047 35.25L180.899 34.8011C180.982 34.9716 181.104 35.1402 181.263 35.3068C181.422 35.4773 181.636 35.6174 181.905 35.7273C182.178 35.8409 182.52 35.8977 182.933 35.8977C183.517 35.8977 184 35.7557 184.382 35.4716C184.765 35.1913 184.956 34.7292 184.956 34.0852V32.4318H184.854C184.748 32.6439 184.592 32.8617 184.388 33.0852C184.187 33.3087 183.92 33.4962 183.587 33.6477C183.257 33.7992 182.842 33.875 182.342 33.875C181.672 33.875 181.064 33.7178 180.518 33.4034C179.977 33.0852 179.545 32.6117 179.223 31.983C178.905 31.3504 178.746 30.5587 178.746 29.608C178.746 28.6496 178.905 27.8409 179.223 27.1818C179.545 26.5189 179.979 26.017 180.524 25.6761C181.07 25.3314 181.678 25.1591 182.348 25.1591C182.859 25.1591 183.28 25.2462 183.609 25.4205C183.943 25.5909 184.208 25.7973 184.405 26.0398C184.602 26.2784 184.751 26.5038 184.854 26.7159H184.967V25.2727H186.996V34.142C186.996 34.8883 186.818 35.5057 186.462 35.9943C186.106 36.483 185.619 36.8485 185.001 37.0909C184.384 37.3333 183.683 37.4545 182.899 37.4545ZM182.916 32.2614C183.352 32.2614 183.723 32.1553 184.03 31.9432C184.337 31.7311 184.57 31.4261 184.729 31.0284C184.888 30.6307 184.967 30.1534 184.967 29.5966C184.967 29.0473 184.888 28.5663 184.729 28.1534C184.573 27.7405 184.342 27.4205 184.036 27.1932C183.732 26.9621 183.359 26.8466 182.916 26.8466C182.458 26.8466 182.075 26.9659 181.768 27.2045C181.462 27.4432 181.231 27.7708 181.075 28.1875C180.92 28.6004 180.842 29.0701 180.842 29.5966C180.842 30.1307 180.92 30.5985 181.075 31C181.234 31.3977 181.467 31.7083 181.774 31.9318C182.085 32.1515 182.465 32.2614 182.916 32.2614ZM189.104 34V25.2727H191.161V34H189.104ZM190.138 24.0341C189.812 24.0341 189.532 23.9261 189.297 23.7102C189.062 23.4905 188.945 23.2273 188.945 22.9205C188.945 22.6098 189.062 22.3466 189.297 22.1307C189.532 21.911 189.812 21.8011 190.138 21.8011C190.467 21.8011 190.748 21.911 190.979 22.1307C191.214 22.3466 191.331 22.6098 191.331 22.9205C191.331 23.2273 191.214 23.4905 190.979 23.7102C190.748 23.9261 190.467 24.0341 190.138 24.0341ZM200.173 27.5795L198.298 27.7841C198.245 27.5947 198.152 27.4167 198.02 27.25C197.891 27.0833 197.717 26.9489 197.497 26.8466C197.277 26.7443 197.009 26.6932 196.69 26.6932C196.262 26.6932 195.902 26.786 195.611 26.9716C195.323 27.1572 195.181 27.3977 195.185 27.6932C195.181 27.947 195.274 28.1534 195.463 28.3125C195.656 28.4716 195.974 28.6023 196.418 28.7045L197.906 29.0227C198.732 29.2008 199.346 29.483 199.747 29.8693C200.152 30.2557 200.357 30.7614 200.361 31.3864C200.357 31.9356 200.196 32.4205 199.878 32.8409C199.563 33.2576 199.126 33.5833 198.565 33.8182C198.005 34.053 197.361 34.1705 196.634 34.1705C195.565 34.1705 194.705 33.947 194.054 33.5C193.402 33.0492 193.014 32.4223 192.889 31.6193L194.895 31.4261C194.986 31.8201 195.179 32.1174 195.474 32.3182C195.77 32.5189 196.154 32.6193 196.628 32.6193C197.116 32.6193 197.509 32.5189 197.804 32.3182C198.103 32.1174 198.253 31.8693 198.253 31.5739C198.253 31.3239 198.156 31.1174 197.963 30.9545C197.774 30.7917 197.478 30.6667 197.077 30.5795L195.588 30.267C194.751 30.0928 194.132 29.7992 193.73 29.3864C193.329 28.9697 193.13 28.4432 193.134 27.8068C193.13 27.2689 193.276 26.803 193.571 26.4091C193.87 26.0114 194.285 25.7045 194.815 25.4886C195.349 25.2689 195.965 25.1591 196.662 25.1591C197.685 25.1591 198.49 25.3769 199.077 25.8125C199.668 26.2481 200.033 26.8371 200.173 27.5795ZM206.415 25.2727V26.8636H201.398V25.2727H206.415ZM202.636 23.1818H204.693V31.375C204.693 31.6515 204.735 31.8636 204.818 32.0114C204.905 32.1553 205.019 32.2538 205.159 32.3068C205.299 32.3598 205.455 32.3864 205.625 32.3864C205.754 32.3864 205.871 32.3769 205.977 32.358C206.087 32.339 206.17 32.322 206.227 32.3068L206.574 33.9148C206.464 33.9527 206.307 33.9943 206.102 34.0398C205.902 34.0852 205.655 34.1117 205.364 34.1193C204.848 34.1345 204.384 34.0568 203.972 33.8864C203.559 33.7121 203.231 33.4432 202.989 33.0795C202.75 32.7159 202.633 32.2614 202.636 31.7159V23.1818ZM208.135 34V25.2727H210.129V26.7273H210.22C210.379 26.2235 210.652 25.8352 211.038 25.5625C211.429 25.286 211.874 25.1477 212.374 25.1477C212.487 25.1477 212.614 25.1534 212.754 25.1648C212.898 25.1723 213.018 25.1856 213.112 25.2045V27.0966C213.025 27.0663 212.887 27.0398 212.697 27.017C212.512 26.9905 212.332 26.9773 212.158 26.9773C211.783 26.9773 211.446 27.0587 211.146 27.2216C210.851 27.3807 210.618 27.6023 210.447 27.8864C210.277 28.1705 210.192 28.4981 210.192 28.8693V34H208.135ZM217.983 34.1705C217.108 34.1705 216.352 33.9886 215.716 33.625C215.083 33.2576 214.597 32.7386 214.256 32.0682C213.915 31.3939 213.744 30.6004 213.744 29.6875C213.744 28.7898 213.915 28.0019 214.256 27.3239C214.6 26.642 215.081 26.1117 215.699 25.733C216.316 25.3504 217.042 25.1591 217.875 25.1591C218.413 25.1591 218.92 25.2462 219.398 25.4205C219.879 25.5909 220.303 25.8561 220.67 26.2159C221.042 26.5758 221.333 27.0341 221.545 27.5909C221.758 28.1439 221.864 28.803 221.864 29.5682V30.1989H214.71V28.8125H219.892C219.888 28.4186 219.803 28.0682 219.636 27.7614C219.47 27.4508 219.237 27.2064 218.938 27.0284C218.642 26.8504 218.297 26.7614 217.903 26.7614C217.483 26.7614 217.114 26.8636 216.795 27.0682C216.477 27.2689 216.229 27.5341 216.051 27.8636C215.877 28.1894 215.788 28.5473 215.784 28.9375V30.1477C215.784 30.6553 215.877 31.0909 216.062 31.4545C216.248 31.8144 216.508 32.0909 216.841 32.2841C217.174 32.4735 217.564 32.5682 218.011 32.5682C218.311 32.5682 218.581 32.5265 218.824 32.4432C219.066 32.3561 219.277 32.2292 219.455 32.0625C219.633 31.8958 219.767 31.6894 219.858 31.4432L221.778 31.6591C221.657 32.1667 221.426 32.6098 221.085 32.9886C220.748 33.3636 220.316 33.6553 219.79 33.8636C219.263 34.0682 218.661 34.1705 217.983 34.1705ZM223.604 34V25.2727H225.598V26.7273H225.689C225.848 26.2235 226.121 25.8352 226.507 25.5625C226.897 25.286 227.342 25.1477 227.842 25.1477C227.956 25.1477 228.083 25.1534 228.223 25.1648C228.367 25.1723 228.486 25.1856 228.581 25.2045V27.0966C228.494 27.0663 228.356 27.0398 228.166 27.017C227.981 26.9905 227.801 26.9773 227.626 26.9773C227.251 26.9773 226.914 27.0587 226.615 27.2216C226.32 27.3807 226.087 27.6023 225.916 27.8864C225.746 28.1705 225.661 28.4981 225.661 28.8693V34H223.604Z" fill="white"/>
<path d="M239.865 23.1943L244.9 28.0001L239.865 32.8058" stroke="white" stroke-width="1.75" stroke-linecap="round" stroke-linejoin="round"/>
<path d="M244.9 28L235.1 28" stroke="white" stroke-width="1.75" stroke-linecap="round" stroke-linejoin="round"/>
</g>
<defs>
<filter id="filter0_d_429_1018" x="0" y="0" width="390" height="58" filterUnits="userSpaceOnUse" color-interpolation-filters="sRGB">
<feFlood flood-opacity="0" result="BackgroundImageFix"/>
<feColorMatrix in="SourceAlpha" type="matrix" values="0 0 0 0 0 0 0 0 0 0 0 0 0 0 0 0 0 0 127 0" result="hardAlpha"/>
<feOffset dy="1"/>
<feGaussianBlur stdDeviation="2"/>
<feComposite in2="hardAlpha" operator="out"/>
<feColorMatrix type="matrix" values="0 0 0 0 0.0969792 0 0 0 0 0.127894 0 0 0 0 0.2375 0 0 0 0.08 0"/>
<feBlend mode="normal" in2="BackgroundImageFix" result="effect1_dropShadow_429_1018"/>
<feBlend mode="normal" in="SourceGraphic" in2="effect1_dropShadow_429_1018" result="shape"/>
</filter>
</defs>
</svg>
