<svg width="356" height="56" viewBox="0 0 356 56" fill="none" xmlns="http://www.w3.org/2000/svg">
<g filter="url(#filter0_d_429_1232)">
<rect width="348" height="48" transform="translate(4 3)" fill="#383E42"/>
<path d="M148.015 33V21.3636H155.583V23.1307H150.123V26.2898H155.191V28.0568H150.123V31.233H155.629V33H148.015ZM159.7 27.8864V33H157.643V24.2727H159.609V25.7557H159.711C159.912 25.267 160.232 24.8788 160.671 24.5909C161.114 24.303 161.662 24.1591 162.313 24.1591C162.915 24.1591 163.44 24.2879 163.887 24.5455C164.338 24.803 164.686 25.1761 164.933 25.6648C165.183 26.1534 165.306 26.7462 165.302 27.4432V33H163.245V27.7614C163.245 27.178 163.094 26.7216 162.79 26.392C162.491 26.0625 162.076 25.8977 161.546 25.8977C161.186 25.8977 160.866 25.9773 160.586 26.1364C160.309 26.2917 160.092 26.517 159.933 26.8125C159.777 27.108 159.7 27.4659 159.7 27.8864ZM174.876 24.2727L171.768 33H169.495L166.387 24.2727H168.58L170.586 30.7557H170.677L172.688 24.2727H174.876ZM179.809 33.1705C178.957 33.1705 178.218 32.983 177.593 32.608C176.968 32.233 176.483 31.7083 176.138 31.0341C175.798 30.3598 175.627 29.572 175.627 28.6705C175.627 27.7689 175.798 26.9792 176.138 26.3011C176.483 25.6231 176.968 25.0966 177.593 24.7216C178.218 24.3466 178.957 24.1591 179.809 24.1591C180.661 24.1591 181.4 24.3466 182.025 24.7216C182.65 25.0966 183.133 25.6231 183.474 26.3011C183.818 26.9792 183.991 27.7689 183.991 28.6705C183.991 29.572 183.818 30.3598 183.474 31.0341C183.133 31.7083 182.65 32.233 182.025 32.608C181.4 32.983 180.661 33.1705 179.809 33.1705ZM179.82 31.5227C180.282 31.5227 180.669 31.3958 180.979 31.142C181.29 30.8845 181.521 30.5398 181.673 30.108C181.828 29.6761 181.906 29.1951 181.906 28.6648C181.906 28.1307 181.828 27.6477 181.673 27.2159C181.521 26.7803 181.29 26.4337 180.979 26.1761C180.669 25.9186 180.282 25.7898 179.82 25.7898C179.347 25.7898 178.953 25.9186 178.638 26.1761C178.328 26.4337 178.095 26.7803 177.94 27.2159C177.788 27.6477 177.712 28.1307 177.712 28.6648C177.712 29.1951 177.788 29.6761 177.94 30.108C178.095 30.5398 178.328 30.8845 178.638 31.142C178.953 31.3958 179.347 31.5227 179.82 31.5227ZM186.718 36.2727C186.438 36.2727 186.178 36.25 185.94 36.2045C185.705 36.1629 185.517 36.1136 185.377 36.0568L185.854 34.4545C186.154 34.5417 186.421 34.5833 186.656 34.5795C186.89 34.5758 187.097 34.5019 187.275 34.358C187.457 34.2178 187.61 33.983 187.735 33.6534L187.911 33.1818L184.746 24.2727H186.928L188.94 30.8636H189.031L191.048 24.2727H193.235L189.741 34.0568C189.578 34.5189 189.362 34.9148 189.093 35.2443C188.824 35.5777 188.495 35.8314 188.104 36.0057C187.718 36.1837 187.256 36.2727 186.718 36.2727ZM198.225 33.1705C197.35 33.1705 196.594 32.9886 195.958 32.625C195.326 32.2576 194.839 31.7386 194.498 31.0682C194.157 30.3939 193.987 29.6004 193.987 28.6875C193.987 27.7898 194.157 27.0019 194.498 26.3239C194.843 25.642 195.324 25.1117 195.941 24.733C196.558 24.3504 197.284 24.1591 198.117 24.1591C198.655 24.1591 199.163 24.2462 199.64 24.4205C200.121 24.5909 200.545 24.8561 200.913 25.2159C201.284 25.5758 201.576 26.0341 201.788 26.5909C202 27.1439 202.106 27.803 202.106 28.5682V29.1989H194.952V27.8125H200.134C200.13 27.4186 200.045 27.0682 199.879 26.7614C199.712 26.4508 199.479 26.2064 199.18 26.0284C198.884 25.8504 198.54 25.7614 198.146 25.7614C197.725 25.7614 197.356 25.8636 197.038 26.0682C196.719 26.2689 196.471 26.5341 196.293 26.8636C196.119 27.1894 196.03 27.5473 196.026 27.9375V29.1477C196.026 29.6553 196.119 30.0909 196.305 30.4545C196.49 30.8144 196.75 31.0909 197.083 31.2841C197.416 31.4735 197.807 31.5682 198.254 31.5682C198.553 31.5682 198.824 31.5265 199.066 31.4432C199.308 31.3561 199.519 31.2292 199.697 31.0625C199.875 30.8958 200.009 30.6894 200.1 30.4432L202.021 30.6591C201.899 31.1667 201.668 31.6098 201.327 31.9886C200.99 32.3636 200.558 32.6553 200.032 32.8636C199.505 33.0682 198.903 33.1705 198.225 33.1705ZM203.846 33V24.2727H205.84V25.7273H205.931C206.09 25.2235 206.363 24.8352 206.749 24.5625C207.139 24.286 207.585 24.1477 208.085 24.1477C208.198 24.1477 208.325 24.1534 208.465 24.1648C208.609 24.1723 208.728 24.1856 208.823 24.2045V26.0966C208.736 26.0663 208.598 26.0398 208.408 26.017C208.223 25.9905 208.043 25.9773 207.869 25.9773C207.494 25.9773 207.156 26.0587 206.857 26.2216C206.562 26.3807 206.329 26.6023 206.158 26.8864C205.988 27.1705 205.903 27.4981 205.903 27.8693V33H203.846Z" fill="white"/>
</g>
<defs>
<filter id="filter0_d_429_1232" x="0" y="0" width="356" height="56" filterUnits="userSpaceOnUse" color-interpolation-filters="sRGB">
<feFlood flood-opacity="0" result="BackgroundImageFix"/>
<feColorMatrix in="SourceAlpha" type="matrix" values="0 0 0 0 0 0 0 0 0 0 0 0 0 0 0 0 0 0 127 0" result="hardAlpha"/>
<feOffset dy="1"/>
<feGaussianBlur stdDeviation="2"/>
<feComposite in2="hardAlpha" operator="out"/>
<feColorMatrix type="matrix" values="0 0 0 0 0.0969792 0 0 0 0 0.127894 0 0 0 0 0.2375 0 0 0 0.08 0"/>
<feBlend mode="normal" in2="BackgroundImageFix" result="effect1_dropShadow_429_1232"/>
<feBlend mode="normal" in="SourceGraphic" in2="effect1_dropShadow_429_1232" result="shape"/>
</filter>
</defs>
</svg>
